<mxfile host="app.diagrams.net" agent="Mozilla/5.0 (Windows NT 10.0; Win64; x64) AppleWebKit/537.36 (KHTML, like Gecko) Chrome/131.0.0.0 Safari/537.36" version="26.0.6">
  <diagram name="Page-1" id="2aFNLs4ZOaEbNJL7gB__">
    <mxGraphModel dx="1035" dy="551" grid="1" gridSize="10" guides="1" tooltips="1" connect="1" arrows="1" fold="1" page="1" pageScale="1" pageWidth="850" pageHeight="1100" math="0" shadow="0">
      <root>
        <mxCell id="0" />
        <mxCell id="1" parent="0" />
        <mxCell id="iHL5_Mmi7fSUdEt9vHek-1" value="Start" style="rounded=1;whiteSpace=wrap;html=1;" vertex="1" parent="1">
          <mxGeometry x="350" y="40" width="120" height="60" as="geometry" />
        </mxCell>
        <mxCell id="iHL5_Mmi7fSUdEt9vHek-2" value="Enter num1,num2" style="shape=parallelogram;perimeter=parallelogramPerimeter;whiteSpace=wrap;html=1;fixedSize=1;" vertex="1" parent="1">
          <mxGeometry x="350" y="150" width="120" height="60" as="geometry" />
        </mxCell>
        <mxCell id="iHL5_Mmi7fSUdEt9vHek-3" value="" style="endArrow=classic;html=1;rounded=0;entryX=0.383;entryY=0.083;entryDx=0;entryDy=0;entryPerimeter=0;" edge="1" parent="1" target="iHL5_Mmi7fSUdEt9vHek-2">
          <mxGeometry width="50" height="50" relative="1" as="geometry">
            <mxPoint x="400" y="100" as="sourcePoint" />
            <mxPoint x="450" y="50" as="targetPoint" />
          </mxGeometry>
        </mxCell>
        <mxCell id="iHL5_Mmi7fSUdEt9vHek-4" value="Num3=num1+num" style="rounded=0;whiteSpace=wrap;html=1;" vertex="1" parent="1">
          <mxGeometry x="350" y="250" width="120" height="60" as="geometry" />
        </mxCell>
        <mxCell id="iHL5_Mmi7fSUdEt9vHek-5" value="" style="endArrow=classic;html=1;rounded=0;" edge="1" parent="1" target="iHL5_Mmi7fSUdEt9vHek-4">
          <mxGeometry width="50" height="50" relative="1" as="geometry">
            <mxPoint x="400" y="210" as="sourcePoint" />
            <mxPoint x="450" y="160" as="targetPoint" />
          </mxGeometry>
        </mxCell>
        <mxCell id="iHL5_Mmi7fSUdEt9vHek-6" value="output:num3" style="shape=parallelogram;perimeter=parallelogramPerimeter;whiteSpace=wrap;html=1;fixedSize=1;" vertex="1" parent="1">
          <mxGeometry x="340" y="340" width="120" height="60" as="geometry" />
        </mxCell>
        <mxCell id="iHL5_Mmi7fSUdEt9vHek-7" value="" style="endArrow=classic;html=1;rounded=0;" edge="1" parent="1" target="iHL5_Mmi7fSUdEt9vHek-6">
          <mxGeometry width="50" height="50" relative="1" as="geometry">
            <mxPoint x="400" y="310" as="sourcePoint" />
            <mxPoint x="450" y="260" as="targetPoint" />
          </mxGeometry>
        </mxCell>
        <mxCell id="iHL5_Mmi7fSUdEt9vHek-8" value="End" style="rounded=1;whiteSpace=wrap;html=1;" vertex="1" parent="1">
          <mxGeometry x="340" y="430" width="120" height="60" as="geometry" />
        </mxCell>
        <mxCell id="iHL5_Mmi7fSUdEt9vHek-9" value="" style="endArrow=classic;html=1;rounded=0;" edge="1" parent="1" target="iHL5_Mmi7fSUdEt9vHek-8">
          <mxGeometry width="50" height="50" relative="1" as="geometry">
            <mxPoint x="400" y="400" as="sourcePoint" />
            <mxPoint x="450" y="350" as="targetPoint" />
          </mxGeometry>
        </mxCell>
        <mxCell id="iHL5_Mmi7fSUdEt9vHek-10" value="start" style="rounded=1;whiteSpace=wrap;html=1;" vertex="1" parent="1">
          <mxGeometry x="280" y="770" width="110" height="20" as="geometry" />
        </mxCell>
        <mxCell id="iHL5_Mmi7fSUdEt9vHek-11" value="Enter Num" style="shape=parallelogram;perimeter=parallelogramPerimeter;whiteSpace=wrap;html=1;fixedSize=1;" vertex="1" parent="1">
          <mxGeometry x="280" y="830" width="100" height="30" as="geometry" />
        </mxCell>
        <mxCell id="iHL5_Mmi7fSUdEt9vHek-12" value="if(num&amp;gt;0)" style="rhombus;whiteSpace=wrap;html=1;" vertex="1" parent="1">
          <mxGeometry x="280" y="880" width="80" height="80" as="geometry" />
        </mxCell>
        <mxCell id="iHL5_Mmi7fSUdEt9vHek-13" value="printf(positive)" style="rounded=0;whiteSpace=wrap;html=1;" vertex="1" parent="1">
          <mxGeometry x="140" y="990" width="100" height="30" as="geometry" />
        </mxCell>
        <mxCell id="iHL5_Mmi7fSUdEt9vHek-14" value="printf(negative)" style="rounded=0;whiteSpace=wrap;html=1;" vertex="1" parent="1">
          <mxGeometry x="440" y="990" width="100" height="30" as="geometry" />
        </mxCell>
        <mxCell id="iHL5_Mmi7fSUdEt9vHek-15" value="" style="endArrow=classic;html=1;rounded=0;entryX=0.5;entryY=0;entryDx=0;entryDy=0;exitX=0.409;exitY=0.8;exitDx=0;exitDy=0;exitPerimeter=0;" edge="1" parent="1" source="iHL5_Mmi7fSUdEt9vHek-10" target="iHL5_Mmi7fSUdEt9vHek-11">
          <mxGeometry width="50" height="50" relative="1" as="geometry">
            <mxPoint x="340" y="810" as="sourcePoint" />
            <mxPoint x="390" y="760" as="targetPoint" />
          </mxGeometry>
        </mxCell>
        <mxCell id="iHL5_Mmi7fSUdEt9vHek-16" value="" style="endArrow=classic;html=1;rounded=0;entryX=0.5;entryY=0;entryDx=0;entryDy=0;" edge="1" parent="1" target="iHL5_Mmi7fSUdEt9vHek-12">
          <mxGeometry width="50" height="50" relative="1" as="geometry">
            <mxPoint x="320" y="850" as="sourcePoint" />
            <mxPoint x="370" y="800" as="targetPoint" />
          </mxGeometry>
        </mxCell>
        <mxCell id="iHL5_Mmi7fSUdEt9vHek-17" value="" style="endArrow=classic;html=1;rounded=0;entryX=0.5;entryY=0;entryDx=0;entryDy=0;exitX=0;exitY=0.5;exitDx=0;exitDy=0;" edge="1" parent="1" source="iHL5_Mmi7fSUdEt9vHek-12" target="iHL5_Mmi7fSUdEt9vHek-13">
          <mxGeometry width="50" height="50" relative="1" as="geometry">
            <mxPoint x="290" y="940" as="sourcePoint" />
            <mxPoint x="340" y="890" as="targetPoint" />
            <Array as="points">
              <mxPoint x="200" y="920" />
            </Array>
          </mxGeometry>
        </mxCell>
        <mxCell id="iHL5_Mmi7fSUdEt9vHek-18" value="true" style="edgeLabel;html=1;align=center;verticalAlign=middle;resizable=0;points=[];" vertex="1" connectable="0" parent="iHL5_Mmi7fSUdEt9vHek-17">
          <mxGeometry x="-0.4161" y="-3" relative="1" as="geometry">
            <mxPoint as="offset" />
          </mxGeometry>
        </mxCell>
        <mxCell id="iHL5_Mmi7fSUdEt9vHek-19" value="" style="endArrow=classic;html=1;rounded=0;entryX=0.41;entryY=0;entryDx=0;entryDy=0;entryPerimeter=0;" edge="1" parent="1" target="iHL5_Mmi7fSUdEt9vHek-14">
          <mxGeometry width="50" height="50" relative="1" as="geometry">
            <mxPoint x="360" y="920" as="sourcePoint" />
            <mxPoint x="410" y="870" as="targetPoint" />
            <Array as="points">
              <mxPoint x="481" y="920" />
            </Array>
          </mxGeometry>
        </mxCell>
        <mxCell id="iHL5_Mmi7fSUdEt9vHek-20" value="false" style="text;html=1;align=center;verticalAlign=middle;resizable=0;points=[];autosize=1;strokeColor=none;fillColor=none;" vertex="1" parent="1">
          <mxGeometry x="385" y="898" width="50" height="30" as="geometry" />
        </mxCell>
        <mxCell id="iHL5_Mmi7fSUdEt9vHek-21" value="end" style="rounded=1;whiteSpace=wrap;html=1;" vertex="1" parent="1">
          <mxGeometry x="270" y="1050" width="90" height="30" as="geometry" />
        </mxCell>
        <mxCell id="iHL5_Mmi7fSUdEt9vHek-22" value="" style="endArrow=classic;html=1;rounded=0;entryX=0;entryY=0.25;entryDx=0;entryDy=0;" edge="1" parent="1" target="iHL5_Mmi7fSUdEt9vHek-21">
          <mxGeometry width="50" height="50" relative="1" as="geometry">
            <mxPoint x="190" y="1020" as="sourcePoint" />
            <mxPoint x="240" y="970" as="targetPoint" />
            <Array as="points">
              <mxPoint x="190" y="1060" />
            </Array>
          </mxGeometry>
        </mxCell>
        <mxCell id="iHL5_Mmi7fSUdEt9vHek-23" value="" style="endArrow=classic;html=1;rounded=0;exitX=0.41;exitY=1;exitDx=0;exitDy=0;exitPerimeter=0;entryX=1;entryY=0.75;entryDx=0;entryDy=0;" edge="1" parent="1" source="iHL5_Mmi7fSUdEt9vHek-14" target="iHL5_Mmi7fSUdEt9vHek-21">
          <mxGeometry width="50" height="50" relative="1" as="geometry">
            <mxPoint x="490" y="969.2893218813452" as="sourcePoint" />
            <mxPoint x="490" y="919.2893218813452" as="targetPoint" />
            <Array as="points">
              <mxPoint x="481" y="1070" />
            </Array>
          </mxGeometry>
        </mxCell>
        <mxCell id="iHL5_Mmi7fSUdEt9vHek-24" value="Start" style="rounded=1;whiteSpace=wrap;html=1;" vertex="1" parent="1">
          <mxGeometry x="290" y="1150" width="100" height="30" as="geometry" />
        </mxCell>
        <mxCell id="iHL5_Mmi7fSUdEt9vHek-25" value="I=1" style="rounded=0;whiteSpace=wrap;html=1;" vertex="1" parent="1">
          <mxGeometry x="280" y="1210" width="90" height="40" as="geometry" />
        </mxCell>
        <mxCell id="iHL5_Mmi7fSUdEt9vHek-26" value="if(i&amp;lt;=10)" style="rhombus;whiteSpace=wrap;html=1;" vertex="1" parent="1">
          <mxGeometry x="280" y="1298" width="80" height="80" as="geometry" />
        </mxCell>
        <mxCell id="iHL5_Mmi7fSUdEt9vHek-27" value="Print I&lt;div&gt;I=I+1&lt;/div&gt;" style="rounded=0;whiteSpace=wrap;html=1;" vertex="1" parent="1">
          <mxGeometry x="260" y="1418" width="120" height="60" as="geometry" />
        </mxCell>
        <mxCell id="iHL5_Mmi7fSUdEt9vHek-28" value="End" style="rounded=1;whiteSpace=wrap;html=1;" vertex="1" parent="1">
          <mxGeometry x="275" y="1510" width="120" height="60" as="geometry" />
        </mxCell>
        <mxCell id="iHL5_Mmi7fSUdEt9vHek-29" value="" style="endArrow=classic;html=1;rounded=0;exitX=0.5;exitY=1;exitDx=0;exitDy=0;" edge="1" parent="1" source="iHL5_Mmi7fSUdEt9vHek-24" target="iHL5_Mmi7fSUdEt9vHek-25">
          <mxGeometry width="50" height="50" relative="1" as="geometry">
            <mxPoint x="330" y="1210" as="sourcePoint" />
            <mxPoint x="380" y="1160" as="targetPoint" />
          </mxGeometry>
        </mxCell>
        <mxCell id="iHL5_Mmi7fSUdEt9vHek-30" value="" style="endArrow=classic;html=1;rounded=0;entryX=0.5;entryY=0;entryDx=0;entryDy=0;" edge="1" parent="1" target="iHL5_Mmi7fSUdEt9vHek-26">
          <mxGeometry width="50" height="50" relative="1" as="geometry">
            <mxPoint x="320" y="1250" as="sourcePoint" />
            <mxPoint x="400" y="1260" as="targetPoint" />
            <Array as="points">
              <mxPoint x="320" y="1250" />
            </Array>
          </mxGeometry>
        </mxCell>
        <mxCell id="iHL5_Mmi7fSUdEt9vHek-31" value="" style="endArrow=classic;html=1;rounded=0;entryX=0.5;entryY=0;entryDx=0;entryDy=0;exitX=0.432;exitY=0.984;exitDx=0;exitDy=0;exitPerimeter=0;" edge="1" parent="1" source="iHL5_Mmi7fSUdEt9vHek-32" target="iHL5_Mmi7fSUdEt9vHek-27">
          <mxGeometry width="50" height="50" relative="1" as="geometry">
            <mxPoint x="350" y="1440" as="sourcePoint" />
            <mxPoint x="400" y="1390" as="targetPoint" />
          </mxGeometry>
        </mxCell>
        <mxCell id="iHL5_Mmi7fSUdEt9vHek-33" value="" style="endArrow=classic;html=1;rounded=0;entryX=0;entryY=0.5;entryDx=0;entryDy=0;exitX=0;exitY=0.5;exitDx=0;exitDy=0;" edge="1" parent="1" source="iHL5_Mmi7fSUdEt9vHek-27" target="iHL5_Mmi7fSUdEt9vHek-26">
          <mxGeometry width="50" height="50" relative="1" as="geometry">
            <mxPoint x="290" y="1510" as="sourcePoint" />
            <mxPoint x="340" y="1460" as="targetPoint" />
            <Array as="points">
              <mxPoint x="170" y="1440" />
              <mxPoint x="160" y="1330" />
            </Array>
          </mxGeometry>
        </mxCell>
        <mxCell id="iHL5_Mmi7fSUdEt9vHek-34" value="" style="endArrow=classic;html=1;rounded=0;entryX=1;entryY=0.5;entryDx=0;entryDy=0;exitX=1;exitY=0.5;exitDx=0;exitDy=0;" edge="1" parent="1" source="iHL5_Mmi7fSUdEt9vHek-26" target="iHL5_Mmi7fSUdEt9vHek-28">
          <mxGeometry width="50" height="50" relative="1" as="geometry">
            <mxPoint x="380" y="1400" as="sourcePoint" />
            <mxPoint x="430" y="1350" as="targetPoint" />
            <Array as="points">
              <mxPoint x="560" y="1338" />
              <mxPoint x="560" y="1550" />
            </Array>
          </mxGeometry>
        </mxCell>
        <mxCell id="iHL5_Mmi7fSUdEt9vHek-35" value="flase" style="text;html=1;align=center;verticalAlign=middle;resizable=0;points=[];autosize=1;strokeColor=none;fillColor=none;" vertex="1" parent="1">
          <mxGeometry x="425" y="1378" width="50" height="30" as="geometry" />
        </mxCell>
        <mxCell id="iHL5_Mmi7fSUdEt9vHek-36" value="" style="endArrow=classic;html=1;rounded=0;entryX=0.558;entryY=0.067;entryDx=0;entryDy=0;entryPerimeter=0;" edge="1" parent="1" source="iHL5_Mmi7fSUdEt9vHek-27" target="iHL5_Mmi7fSUdEt9vHek-28">
          <mxGeometry width="50" height="50" relative="1" as="geometry">
            <mxPoint x="350" y="1540" as="sourcePoint" />
            <mxPoint x="400" y="1490" as="targetPoint" />
          </mxGeometry>
        </mxCell>
        <mxCell id="iHL5_Mmi7fSUdEt9vHek-38" value="" style="endArrow=classic;html=1;rounded=0;entryX=0.5;entryY=0;entryDx=0;entryDy=0;exitX=0.432;exitY=0.984;exitDx=0;exitDy=0;exitPerimeter=0;" edge="1" parent="1" source="iHL5_Mmi7fSUdEt9vHek-26" target="iHL5_Mmi7fSUdEt9vHek-32">
          <mxGeometry width="50" height="50" relative="1" as="geometry">
            <mxPoint x="315" y="1377" as="sourcePoint" />
            <mxPoint x="320" y="1418" as="targetPoint" />
          </mxGeometry>
        </mxCell>
        <mxCell id="iHL5_Mmi7fSUdEt9vHek-32" value="true" style="text;html=1;align=center;verticalAlign=middle;resizable=0;points=[];autosize=1;strokeColor=none;fillColor=none;" vertex="1" parent="1">
          <mxGeometry x="305" y="1418" width="40" height="30" as="geometry" />
        </mxCell>
      </root>
    </mxGraphModel>
  </diagram>
</mxfile>
